<?xml version="1.0" encoding="utf-8"?>
<!DOCTYPE svg PUBLIC "-//W3C//DTD SVG 1.1//EN" "http://www.w3.org/Graphics/SVG/1.1/DTD/svg11.dtd">
<svg version="1.1" id="Layer_1" xmlns="http://www.w3.org/2000/svg" xmlns:xlink="http://www.w3.org/1999/xlink" x="0px" y="0px"
	 viewBox="0 0 325 80" enable-background="new 0 0 325 80" xml:space="preserve">
<g>
	<path fill="#FA5560" d="M147.7,59.1l-7.1-16c-2.3-5.2-4.9-11.1-5.6-13.7c0.3,3.4,0.4,8.3,0.4,11.8l0.2,17.8h-8.1V17.4h9.3l8,16.7
		c2.1,4.4,3.7,8.8,4.6,11.8c-0.3-3.2-0.6-8.6-0.7-11.5l-0.2-17h8v41.7H147.7z"/>
	<path fill="#FA5560" d="M184.8,59.9c-1-0.7-1.9-1.7-2.4-3c-2,1.9-4.9,2.9-8.1,2.9c-4.3,0-8-2-9.1-5c-0.5-1.4-0.7-3-0.7-6.1V29.1
		l7.9-1.5v19.7c0,2.8,0.2,4.2,0.7,5s1.6,1.4,2.8,1.4c2,0,4.4-1.4,5-2.9V29.3l7.7-1.6v23.5c0,2,0.7,4.1,1.9,5.6L184.8,59.9z"/>
	<path fill="#FA5560" d="M216.1,57.9c-2.2,1.3-4.6,1.9-7.5,1.9c-8.5,0-13.4-5.9-13.4-15.8c0-7.1,2.7-11.8,6.3-14.2
		c2-1.4,5-2.3,7.6-2.3c2,0,4.3,0.5,5.9,1.4c1.1,0.6,1.7,1,3,2.2l-3.9,5.3c-1.6-1.5-3.4-2.4-4.9-2.4c-3.6,0-5.2,3.1-5.2,10.3
		c0,4,0.5,6.4,1.6,7.7c0.8,1.1,2.2,1.7,3.6,1.7c1.9,0,3.5-0.8,5.5-2.5l0.5-0.4l3.7,4.9C217.7,56.8,217.2,57.2,216.1,57.9z"/>
	<path fill="#FA5560" d="M231.9,59.8c-3.4,0-6.2-1.6-7.1-4.2c-0.6-1.6-0.7-2.5-0.7-6.9V25.8c0-4-0.1-6.5-0.4-9.2l8.2-1.9
		c0.3,1.7,0.4,3.7,0.4,8v23.9c0,5.3,0.1,6,0.5,6.8c0.3,0.5,1,0.8,1.6,0.8c0.3,0,0.5,0,0.9-0.1l1.4,4.8
		C235.3,59.5,233.6,59.8,231.9,59.8z"/>
	<path fill="#FA5560" d="M244.9,24.9c-2.7,0-4.9-2.2-4.9-5c0-2.8,2.3-5,5-5c2.7,0,4.9,2.2,4.9,5C249.9,22.7,247.6,24.9,244.9,24.9z
		 M240.9,59.1V28.9l8-1.3v31.4H240.9z"/>
	<path fill="#FA5560" d="M273.6,59.1v-20c0-3.5-0.6-4.5-2.7-4.5c-1.6,0-3.7,1.1-5.6,2.8v21.7h-8V36.8c0-2.6-0.4-5.2-1.1-7.2l7.1-2
		c0.7,1.3,1.1,2.6,1.1,3.8c1.2-0.8,2.2-1.6,3.5-2.3c1.6-0.8,3.7-1.3,5.5-1.3c3.4,0,6.4,1.8,7.4,4.4c0.4,1.1,0.6,2.5,0.6,4.4v22.4
		H273.6z"/>
	<path fill="#FA5560" d="M311.8,55.5c-2.3,2.6-5.4,4.3-10.1,4.3c-8.3,0-13.8-6.2-13.8-15.9c0-9.7,5.5-16.1,13.8-16.1
		c4.4,0,7.8,1.5,10.4,4.6c2.5,2.9,3.5,6.2,3.5,11.2C315.6,48.9,314.4,52.5,311.8,55.5z M305.2,35.3c-0.8-1-2-1.6-3.5-1.6
		c-1.9,0-3.5,1.2-4.1,3.1c-0.5,1.6-0.8,3.8-0.8,6.8c0,3.5,0.4,6.2,1,7.7c0.7,1.7,2.5,2.5,4.1,2.5c3.5,0,5-3.1,5-10.4
		C306.9,39.4,306.3,36.7,305.2,35.3z"/>
</g>
<g>
	<path fill="#FA5560" d="M80.8,11.1c-0.6,0-1.1,0-1.7,0.1l0-0.1c-0.5,0.1-1,0.1-1.6,0.2c-0.6,0.1-1.2,0.2-1.8,0.3
		c-4.6-5.6-11.6-8.9-18.9-8.9C50.8,2.8,45,5,40.5,9l0,0c-0.9,0.8-1.8,1.7-2.5,2.7c-1.8-0.4-3.5-0.6-5.4-0.6
		c-13.5,0-24.5,11-24.5,24.5c0,13.5,11,24.5,24.5,24.5h24.8v14.4c0,0.9,0.4,1.7,1.1,2.2c0.5,0.3,1,0.5,1.6,0.5c0.3,0,0.5,0,0.8-0.1
		c0.3-0.1,6.5-2,12.2-8.4c2.9-3.2,4.8-6.6,5.8-8.6c0.7,0.1,1.3,0.1,2,0.1c13.5,0,24.5-11,24.5-24.5C105.4,22.1,94.3,11.1,80.8,11.1z
		 M80.8,54.8c-1,0-2.1-0.1-3.2-0.3c-0.8-0.1-1.7,0.1-2.3,0.7c-0.3,0.3-0.5,0.6-0.7,1c-0.2,0.4-2.1,4.8-5.7,8.9
		c-2.2,2.4-4.5,4.1-6.3,5.2V57.5c0-1.5-1.2-2.7-2.7-2.7H32.6c-10.6,0-19.1-8.6-19.1-19.1c0-10.6,8.6-19.1,19.1-19.1
		c0.8,0,1.5,0.1,2.3,0.1c-1.2,2.5-1.9,5.2-2.2,7.9c-2,0.4-3.9,1.2-5.6,2.4c-1.2,0.8-1.5,2.5-0.7,3.8c0.8,1.2,2.5,1.5,3.8,0.7
		c1.8-1.3,4-1.9,6.2-1.8c3.2,0.2,6,1.8,7.8,4.4c0.5,0.8,1.4,1.2,2.2,1.2c0.5,0,1-0.1,1.5-0.5c1.2-0.8,1.6-2.5,0.7-3.7
		c-2.4-3.6-6.2-6-10.5-6.6c0.5-3.3,1.8-6.5,3.9-9.1c3.6-4.5,9.1-7.2,14.9-7.2c5.1,0,10,2.1,13.6,5.6c-2.2,1.2-4.3,2.7-6.1,4.6
		c-0.6-0.2-1.1-0.4-1.7-0.6c-3.3-0.9-6.7-0.7-9.9,0.5c-1.4,0.6-2.1,2.1-1.5,3.5c0.6,1.4,2.1,2.1,3.5,1.5c2.1-0.8,4.3-0.9,6.4-0.3
		c3.1,0.9,5.5,3.1,6.6,6c0.4,1.1,1.4,1.7,2.5,1.7c0.3,0,0.7-0.1,1-0.2c1.4-0.5,2.1-2.1,1.5-3.5c-0.9-2.2-2.2-4.1-3.8-5.6
		c2.7-2.5,6-4.1,9.6-4.7c0.7-0.1,1.5-0.1,2.2-0.1c10.6,0,19.1,8.6,19.1,19.1C100,46.2,91.4,54.8,80.8,54.8z"/>
	<path fill="#FA5560" d="M37.9,40.5c-1.8,1.4-3.9,2.1-6.1,2.1c-3.2,0-6.1-1.5-8-4c-0.9-1.2-2.6-1.4-3.8-0.5
		c-1.2,0.9-1.4,2.6-0.5,3.8c2.9,3.9,7.4,6.1,12.3,6.1c3.4,0,6.7-1.1,9.4-3.2c1.2-0.9,1.4-2.6,0.5-3.8C40.7,39.8,39,39.6,37.9,40.5z"
		/>
	<path fill="#FA5560" d="M90.5,38.5c-1.8,0-3.4-0.6-4.8-1.7c-2-1.5-3.1-3.9-3.1-6.4c0-1.5-1.2-2.7-2.7-2.7c0,0,0,0,0,0
		c-1.5,0-2.7,1.2-2.7,2.7c0,3,0.9,5.8,2.6,8.1c-1.4,2.5-3.5,4.4-6.1,5.6c-3.6,1.7-7.6,1.7-11.1,0.1c1.7-2.4,2.7-5.3,2.9-8.3
		c0.1-1.5-1.1-2.7-2.6-2.8c-1.5-0.1-2.7,1.1-2.8,2.6c-0.1,2.2-0.9,4.3-2.4,6c-2,2.4-5,3.7-8.2,3.5c-1.5-0.1-2.8,1.1-2.8,2.5
		c-0.1,1.5,1.1,2.8,2.5,2.8c0.3,0,0.6,0,0.9,0c3.1,0,6.1-1,8.7-2.7c0.3,0.4,0.6,0.7,1,0.9c2.6,1.3,5.3,1.9,8.2,1.9
		c2.7,0,5.4-0.6,8-1.8c3.3-1.5,6-3.9,7.9-6.9c2,1.1,4.2,1.8,6.6,1.8c0,0,0,0,0,0c1.5,0,2.7-1.2,2.7-2.7C93.2,39.7,92,38.5,90.5,38.5
		z"/>
</g>
</svg>
